<svg xmlns="http://www.w3.org/2000/svg" viewBox="0 0 87.39 90.64"><defs><style>.cls-1{fill:#fff;stroke:#231f20;stroke-miterlimit:10;}.cls-2{fill:#231f20;}</style></defs><title>S button </title><g id="Layer_2" data-name="Layer 2"><g id="Layer_1-2" data-name="Layer 1"><ellipse class="cls-1" cx="43.69" cy="45.32" rx="43.19" ry="44.82"/><path class="cls-2" d="M41.9,47.26A16.73,16.73,0,0,1,35.23,44a6.16,6.16,0,0,1-2.09-4.74A6.53,6.53,0,0,1,35.69,34a10.14,10.14,0,0,1,6.63-2.09,11.07,11.07,0,0,1,5,1.08,8.15,8.15,0,0,1,3.37,3,7.57,7.57,0,0,1,1.2,4.14H48.28a5,5,0,0,0-1.56-3.87,6.37,6.37,0,0,0-4.4-1.4A6.48,6.48,0,0,0,38.21,36a3.87,3.87,0,0,0-1.47,3.22,3.49,3.49,0,0,0,1.4,2.8,13.68,13.68,0,0,0,4.77,2.09,22.63,22.63,0,0,1,5.27,2.09A8,8,0,0,1,51,48.85a6.85,6.85,0,0,1,.92,3.59,6.33,6.33,0,0,1-2.56,5.26,11,11,0,0,1-6.85,2,12.73,12.73,0,0,1-5.2-1.06,8.9,8.9,0,0,1-3.72-2.93,7.12,7.12,0,0,1-1.3-4.21h3.58a4.65,4.65,0,0,0,1.81,3.87,7.57,7.57,0,0,0,4.83,1.42,7,7,0,0,0,4.32-1.15,3.75,3.75,0,0,0,1.51-3.14,3.68,3.68,0,0,0-1.4-3.07A16,16,0,0,0,41.9,47.26Z"/></g></g></svg>